# xmcd
#
# Track frame offsets:
#	150
#	11720
#	39846
#	62609
#	92208
#	113070
#	134021
#	162325
#	182375
#	200689
#	219145
#
# Disc length: 3242 seconds
#
# Revision: 9
# Processed by: cddbd v1.5.2PL0 Copyright (c) Steve Scherf et al.
# Submitted via: audiograbber 1.83.01
#
DISCID=900ca80b
DTITLE=Angels and Airwaves - Love:Album Parts One and Two
DYEAR=2011
DGENRE=Hard Rock
TTITLE0=Et Ducit Mundum Per Luce
TTITLE1=The Flight Of Apollo
TTITLE2=Young London
TTITLE3=Shove
TTITLE4=Epic Holiday
TTITLE5=Hallucinations
TTITLE6=The Moon-Atomic (... Fragments And Fictions)
TTITLE7=Clever Love
TTITLE8=Soul Survivor (...2012)
TTITLE9=Letters To God, Part II
TTITLE10=Some Origins Of Fire
EXTD=
EXTT0=
EXTT1=
EXTT2=
EXTT3=
EXTT4=
EXTT5=
EXTT6=
EXTT7=
EXTT8=
EXTT9=
EXTT10=
PLAYORDER=
